<svg id="branches" xmlns="http://www.w3.org/2000/svg" width="667.006" height="552.847" viewBox="0 0 667.006 552.847">
  <g id="wreath" transform="matrix(-0.866, 0.5, -0.5, -0.866, 387.14, 254.446)">
    <path id="Trazado_6" data-name="Trazado 6" d="M116.949,5.786c13.366-6.317,27.908-8.8,40.355-6.076a4.155,4.155,0,0,1,2.564,1.578c-14.131,11.379-32.284,15.434-46.407,11.419-1.425-.307-2.8-1.008-4.487-.509a129.471,129.471,0,0,0-12.637,4.37c6.948,1.709,14.328,2.514,21.174,4.391,2.716.473,5.28,2.051,8.466.762,10.493-3.353,20.941-4.679,31.29-5.839,15.609-7.5,32.544-9.4,46.567-5.218a51.862,51.862,0,0,1,26.032,18.071c1.454,1.236.642,4.359-1.57,5.306-1.106.746-2.185.167-3.094.035-3.278-.876-6.566-1.673-10.262-1.181-6.3.316-12.769,3.063-19.1,3.617-10.986,1.309-21.358-1.339-29.159-6.994-3.737-2.613-6.728-6.165-9.751-9.479a151.175,151.175,0,0,0-26.614,4.381c20.283,6.977,39.4,16.262,55.721,29.126.776.535,1.5,1.465,2.775,1.165a106.3,106.3,0,0,1,15.8-.914c1.761.112,3.422-1.317,5.165-2.212a47.341,47.341,0,0,1,29.629-6.118c12.36,1.647,23.076,7.442,31.852,15.009,1.575.912,1.513,3.639-.384,5.1-2.089,1.166-4.373,1.5-6.622,2.142-14.626,3.66-29.718,6.206-43.039,3.112-7.116-1.612-13.407-5.882-15.544-12.873a90.808,90.808,0,0,0-13.166.31c2.934,3.4,6.491,6.191,9.683,9.408a166.961,166.961,0,0,1,13.926,15.7,11.394,11.394,0,0,0,3.484,3.339c5.228,2.991,10.181,6.322,15.12,9.734a3.31,3.31,0,0,0,3,.674,87.347,87.347,0,0,1,20.432.2c4.172.544,8.324,1.245,11.864,3.023a5.468,5.468,0,0,1-2.747,1.474,100.822,100.822,0,0,1-23.956.741c3.383,1.8,5.248,6.252,9.964,5.647a24.455,24.455,0,0,1,20.568,9.978c6.485,8.524,9.6,19.678,10.825,31.124.441,2.438-2.661,4.807-4.684,3.79-8.57-2.849-16.574-7-22.865-12.986-6.538-6.419-10.988-15.715-9.528-26.45.514-2.079-1.453-2.947-2.547-3.99-6.292-4.814-12.466-9.953-19.583-13.819,5.291,9.356,10.747,18.618,14.766,28.817a201.2,201.2,0,0,1,10.987,35.615c.169,2.158,2.325,2.771,3.71,3.938,8.781,6.4,12.737,17.617,13.056,29.475.441,15.5-3.8,31.909-9.887,47.749-.9,2.124-1.574,4.764-3.83,6.026a3.364,3.364,0,0,1-4.928-1.235c-6.309-10.953-11.046-23.248-12.361-36.862a71.348,71.348,0,0,1,5.06-34.381c.913-2.745,3.127-5.4,3.336-8.069a181.93,181.93,0,0,0-26.227-66.633,38.265,38.265,0,0,0-3.5-4.894,190.423,190.423,0,0,1,4.866,22.7c7.161,9.225,10.476,21.758,9.692,34.906-.883,15.024-7.421,30.759-17.146,44.364-1.467,2.263-4.548,2.221-5.289.282-.04-3.1,1.037-6.49.917-9.586-.04-6.526-2.952-11.8-4.545-17.681-2.91-10.4-1.607-22.828,3.6-34.451,2.208-5.455,5.819-10.446,8.69-15.665a89.058,89.058,0,0,0-3.685-18.321c-1.14,7.823-2.313,15.884-5.92,23.673-.3-.044-.986-.123-1.368-.156-.479-10.675-.032-21.92,3.958-33.093a46.951,46.951,0,0,0-12.47-19.591c-8.872-8.567-18.345-16.679-29.243-22.843.5,1.965.631,4.439,2.688,5.218A28.872,28.872,0,0,1,184.6,72.675c3.384,10.893,2.105,23.708-.734,36.073a89.951,89.951,0,0,1-4.165,13.6c-.984,2.131-4.085,2.789-5.1,1.193A103.53,103.53,0,0,1,163.273,104.6c-4.011-9.112-6.943-19.356-5.015-30.688a39.09,39.09,0,0,1,7.241-16.36c-1.2-3.674-2.4-7.348-3.932-10.83-.524-1.262-1.838-1.815-2.906-2.472a190.783,190.783,0,0,0-20.489-9.442c4.309,6.358,8.774,12.7,11.8,19.977a12.754,12.754,0,0,1,1.17,6.166c-1.255.141-2.676.377-3.678-.21-4.089-1.719-6.957-5.05-9.587-8.409A89.854,89.854,0,0,1,127.6,33.665c-.716-1.553-1.242-3.358-3.217-3.6A184.707,184.707,0,0,0,105.4,25.425c2.822,1.394,5.942,2.288,8.5,3.945,8,4.779,13.035,13.154,15.311,22.537C132.3,64.932,131.237,79.587,128.2,94c-.4,1.833-1.081,4.552-3.377,4.965-1.711.658-2.672-.79-3.641-1.613-8.74-8.971-16.278-19.4-20.367-31.921a47.721,47.721,0,0,1,2.005-35.206c-1.192-2.587-2.734-5.446-5.541-6.375C67.5,19.1,35.184,21.166,3.056,29.2.708,30-.931,27.856-.013,25.654A4.381,4.381,0,0,1,3.3,22.873c28.065-7.109,56.112-9.552,82.654-7.162,2.627.561,5.418-1.229,8.178-2.237,7.446-3.089,15.123-5.037,22.818-7.688M172.978,15.6A169.1,169.1,0,0,1,215.5,23.117c-10.878-8.576-26.609-11.555-42.521-7.518m-8.124,4.1c7.035,8.462,18.391,12.942,30.935,11.536,6.082-.448,12.278-2.853,18.335-3.687a140.916,140.916,0,0,0-49.27-7.85M110.376,34.274c7.068,16.154,10.975,33.983,14.244,51.963,1.109-9.3,1.759-18.621.306-27.241-1.54-10.244-6.126-19.681-14.55-24.723m-4.709,1.693a42.8,42.8,0,0,0,.083,26.654A70.327,70.327,0,0,0,120.2,87.509a52.287,52.287,0,0,0-1.031-7.192,220.155,220.155,0,0,0-9.644-36.387c-1.093-2.753-2.008-5.683-3.859-7.963M215.64,53.884c14.422,1.259,28.731,2.765,42.9,4.755-11.43-7.349-26.989-11.59-42.9-4.755M166.925,63.54a34.079,34.079,0,0,0-3.748,21.331,65.238,65.238,0,0,0,11.331,27.957,136.747,136.747,0,0,0-1.425-20.749c-1.372-9.8-2.888-19.654-6.158-28.538M212.506,58.2c1.919,4.061,6.2,6.069,10.512,7.3,11.414,2.918,24.525.75,37.174-1.989a23.49,23.49,0,0,0-4.208-.85c-14.323-1.971-28.637-4.02-43.477-4.456M172,63.671c1.731,8.278,3.8,16.364,4.871,24.95,1,6.262,1.2,12.769,1.964,19.058a78.647,78.647,0,0,0,2.425-17.84c.141-10.121-2.184-20.277-9.259-26.168m85.021,50.406c6.993,7.067,13.883,14.3,19.292,22.79-2.786-10.18-8.439-20.275-19.292-22.79m-4.308,2.737a23.644,23.644,0,0,0,2.712,11.277c4.251,7.92,11.591,13.55,20.028,16.8-3-6.893-7.708-12.584-12.438-18.118-3.3-3.517-6.442-7.13-10.3-9.961m-44.274,47.4c.909,5.807,3.551,10.8,5.042,16.3,3.166-17.611,4.862-35.215,3.665-51.948-7.532,11.1-10.736,24.445-8.707,35.644m13.1-32.173a246.65,246.65,0,0,1-4.243,48.827c8.251-16.393,10.123-34.716,4.243-48.827m27.773,41.042a64.023,64.023,0,0,0-6.14,29.837,74.974,74.974,0,0,0,8.01,30.819c1.766-19.242,2.379-38.511-.656-56.517a14.8,14.8,0,0,0-1.214-4.139m5.107,1.06c2.887,17.943,2.935,36.906,1.012,56.166a120.429,120.429,0,0,0,5.542-24.874C262.071,193.966,261.056,182.11,254.419,174.147Z" transform="translate(252.489 275.287) rotate(-172)" fill="#0b397c" stroke="#00476a" stroke-width="0.05"/>
  </g>
  <g id="wreath-2" data-name="wreath" transform="translate(395.962 552.847) rotate(-109)">
    <path id="Trazado_6-2" data-name="Trazado 6" d="M117.221,242.256c13.366,6.317,27.908,8.8,40.355,6.076a4.155,4.155,0,0,0,2.564-1.578c-14.131-11.379-32.284-15.434-46.407-11.419-1.425.307-2.8,1.008-4.487.509a129.473,129.473,0,0,1-12.637-4.37c6.948-1.709,14.328-2.514,21.174-4.391,2.716-.473,5.28-2.051,8.466-.762,10.493,3.353,20.941,4.679,31.29,5.839,15.609,7.5,32.544,9.4,46.567,5.218a51.862,51.862,0,0,0,26.032-18.071c1.454-1.236.642-4.359-1.57-5.306-1.106-.746-2.185-.167-3.094-.035-3.278.876-6.566,1.673-10.262,1.181-6.3-.316-12.769-3.063-19.1-3.617-10.986-1.309-21.358,1.339-29.159,6.994-3.737,2.613-6.728,6.165-9.751,9.479a151.175,151.175,0,0,1-26.614-4.381c20.283-6.977,39.4-16.262,55.721-29.126.776-.535,1.5-1.465,2.775-1.165a106.3,106.3,0,0,0,15.8.914c1.761-.112,3.422,1.317,5.165,2.212a47.341,47.341,0,0,0,29.629,6.118c12.36-1.647,23.076-7.442,31.852-15.009,1.575-.912,1.513-3.639-.384-5.1-2.089-1.166-4.373-1.5-6.622-2.142-14.626-3.66-29.718-6.206-43.039-3.112-7.116,1.612-13.407,5.882-15.544,12.873a90.808,90.808,0,0,1-13.166-.31c2.934-3.4,6.491-6.191,9.683-9.408a166.963,166.963,0,0,0,13.926-15.7,11.394,11.394,0,0,1,3.484-3.339c5.228-2.991,10.181-6.322,15.12-9.734a3.31,3.31,0,0,1,3-.674,87.346,87.346,0,0,0,20.432-.2c4.172-.544,8.324-1.245,11.864-3.023a5.468,5.468,0,0,0-2.747-1.474,100.822,100.822,0,0,0-23.956-.741c3.383-1.8,5.248-6.252,9.964-5.647a24.455,24.455,0,0,0,20.568-9.978c6.485-8.524,9.6-19.678,10.825-31.124.441-2.438-2.661-4.807-4.684-3.79-8.57,2.849-16.574,7-22.865,12.986-6.538,6.419-10.988,15.715-9.528,26.45.514,2.079-1.453,2.947-2.547,3.99-6.292,4.814-12.466,9.953-19.583,13.819,5.291-9.356,10.747-18.618,14.766-28.817A201.2,201.2,0,0,0,251.48,87.761c.169-2.158,2.325-2.771,3.71-3.938,8.781-6.4,12.737-17.617,13.056-29.475.441-15.5-3.8-31.909-9.887-47.749-.9-2.124-1.574-4.764-3.83-6.026A3.364,3.364,0,0,0,249.6,1.808c-6.309,10.953-11.046,23.248-12.361,36.862a71.348,71.348,0,0,0,5.06,34.381c.913,2.745,3.127,5.4,3.336,8.069a181.93,181.93,0,0,1-26.227,66.633,38.264,38.264,0,0,1-3.5,4.894,190.422,190.422,0,0,0,4.866-22.7c7.161-9.225,10.476-21.758,9.692-34.906-.883-15.024-7.421-30.759-17.146-44.364-1.467-2.263-4.548-2.221-5.289-.282-.04,3.1,1.037,6.49.917,9.586-.04,6.526-2.952,11.8-4.545,17.681-2.91,10.4-1.607,22.828,3.6,34.451,2.208,5.455,5.819,10.446,8.69,15.665A89.058,89.058,0,0,1,213.01,146.1c-1.14-7.823-2.313-15.884-5.92-23.673-.3.044-.986.123-1.368.156-.479,10.675-.032,21.92,3.958,33.093a46.951,46.951,0,0,1-12.47,19.591c-8.872,8.567-18.345,16.68-29.243,22.843.5-1.965.631-4.439,2.688-5.218a28.872,28.872,0,0,0,14.216-17.53c3.384-10.893,2.105-23.708-.734-36.073a89.951,89.951,0,0,0-4.165-13.6c-.984-2.131-4.085-2.789-5.1-1.193a103.53,103.53,0,0,0-11.323,18.941c-4.011,9.112-6.943,19.356-5.015,30.688a39.09,39.09,0,0,0,7.241,16.36c-1.2,3.674-2.4,7.348-3.932,10.83-.524,1.262-1.838,1.815-2.906,2.472a190.784,190.784,0,0,1-20.489,9.442c4.309-6.358,8.774-12.7,11.8-19.977a12.754,12.754,0,0,0,1.17-6.166c-1.255-.141-2.676-.377-3.678.21-4.089,1.719-6.957,5.05-9.587,8.409a89.854,89.854,0,0,0-10.279,18.671c-.716,1.553-1.242,3.358-3.217,3.6a184.711,184.711,0,0,1-18.979,4.637c2.822-1.394,5.942-2.288,8.5-3.945,8-4.779,13.035-13.154,15.311-22.537,3.093-13.025,2.028-27.68-1.012-42.091-.4-1.833-1.081-4.552-3.377-4.965-1.711-.658-2.672.79-3.641,1.613-8.74,8.971-16.278,19.4-20.367,31.921a47.721,47.721,0,0,0,2.005,35.206c-1.192,2.587-2.734,5.446-5.541,6.375-29.773,4.748-62.094,2.681-94.222-5.35-2.348-.807-3.987,1.341-3.069,3.543a4.381,4.381,0,0,0,3.312,2.781c28.065,7.109,56.112,9.552,82.654,7.162,2.627-.561,5.418,1.229,8.178,2.237,7.446,3.089,15.123,5.037,22.818,7.688m56.029-9.813a169.1,169.1,0,0,0,42.521-7.518c-10.878,8.576-26.609,11.555-42.521,7.518m-8.124-4.1c7.035-8.462,18.391-12.942,30.935-11.536,6.082.448,12.278,2.853,18.335,3.687a140.915,140.915,0,0,1-49.27,7.85m-54.478-14.577c7.068-16.154,10.975-33.983,14.244-51.963,1.109,9.3,1.759,18.621.306,27.241-1.54,10.244-6.126,19.681-14.55,24.723m-4.709-1.693a42.8,42.8,0,0,1,.083-26.654,70.327,70.327,0,0,1,14.452-24.889,52.288,52.288,0,0,1-1.031,7.192,220.155,220.155,0,0,1-9.644,36.387c-1.093,2.753-2.008,5.683-3.859,7.963m109.973-17.917c14.422-1.259,28.731-2.765,42.9-4.755-11.43,7.349-26.989,11.59-42.9,4.755M167.2,184.5a34.079,34.079,0,0,1-3.748-21.331,65.238,65.238,0,0,1,11.331-27.957,136.747,136.747,0,0,1-1.425,20.749c-1.372,9.8-2.888,19.654-6.158,28.538m45.582,5.341c1.919-4.061,6.2-6.069,10.512-7.3,11.414-2.918,24.525-.75,37.174,1.989a23.489,23.489,0,0,1-4.208.85c-14.323,1.971-28.637,4.02-43.477,4.456m-40.5-5.472c1.731-8.278,3.8-16.364,4.871-24.95,1-6.262,1.2-12.769,1.964-19.058a78.647,78.647,0,0,1,2.425,17.84c.141,10.121-2.184,20.277-9.259,26.168M257.3,133.964c6.993-7.067,13.883-14.3,19.292-22.79-2.786,10.18-8.439,20.275-19.292,22.79m-4.308-2.737A23.644,23.644,0,0,1,255.7,119.95c4.251-7.92,11.591-13.55,20.028-16.8-3,6.893-7.708,12.584-12.438,18.118-3.3,3.517-6.442,7.13-10.3,9.961m-44.274-47.4c.909-5.807,3.551-10.8,5.042-16.3,3.166,17.611,4.862,35.215,3.665,51.948-7.532-11.1-10.736-24.445-8.707-35.644M221.811,116a246.65,246.65,0,0,0-4.243-48.827c8.251,16.393,10.123,34.716,4.243,48.827m27.773-41.042a64.023,64.023,0,0,1-6.14-29.837,74.974,74.974,0,0,1,8.01-30.819c1.766,19.242,2.379,38.511-.656,56.517a14.8,14.8,0,0,1-1.214,4.139m5.107-1.06c2.887-17.943,2.935-36.906,1.012-56.166A120.429,120.429,0,0,1,261.246,42.6C262.343,54.076,261.328,65.932,254.691,73.894Z" transform="translate(316.917 247) rotate(172)" fill="#0b397c" stroke="#00476a" stroke-width="0.05"/>
  </g>
</svg>
