<svg id="log_in" data-name="log in" xmlns="http://www.w3.org/2000/svg" width="30" height="34.107" viewBox="0 0 30 34.107">
  <g id="Trazado_1" data-name="Trazado 1" transform="translate(0 6)" fill="#fff">
    <path d="M 18.08813095092773 27.60696220397949 L 11.92944049835205 27.60696220397949 C 10.81209087371826 27.60696220397949 9.631720542907715 27.21018218994141 8.51594066619873 26.45951271057129 C 7.454000949859619 25.74506378173828 6.50791072845459 24.73763275146484 5.851931095123291 23.622802734375 C 4.739320755004883 21.73189353942871 4.570661067962646 19.8023624420166 5.38922119140625 18.3289623260498 L 10.19214057922363 9.683712959289551 C 11.17625141143799 7.912312984466553 12.97358131408691 6.854753017425537 15.00000095367432 6.854753017425537 C 17.02642059326172 6.854753017425537 18.82375144958496 7.912312984466553 19.807861328125 9.683712959289551 L 24.61078071594238 18.3289623260498 C 25.43158149719238 19.8064022064209 25.26308059692383 21.74018287658691 24.14847183227539 23.63447380065918 C 23.49401092529297 24.74673271179199 22.55083084106445 25.75136375427246 21.4926700592041 26.46329307556152 C 20.38061141967773 27.21149253845215 19.20334053039551 27.60696220397949 18.08813095092773 27.60696220397949 Z" stroke="none"/>
    <path d="M 15.00000095367432 7.354753494262695 C 13.15780067443848 7.354753494262695 11.52386093139648 8.316164016723633 10.62922096252441 9.926532745361328 L 5.826301574707031 18.5717830657959 C 5.095991134643555 19.88634300231934 5.262401580810547 21.63494300842285 6.282871246337891 23.36924362182617 C 6.901700973510742 24.42094421386719 7.79387092590332 25.37109375 8.795040130615234 26.04465293884277 C 9.828031539916992 26.7396240234375 10.91188049316406 27.10696411132812 11.92944145202637 27.10696411132812 L 18.08813095092773 27.10696411132812 C 19.10354232788086 27.10696411132812 20.18430137634277 26.74093246459961 21.21356201171875 26.04845428466797 C 22.21095085144043 25.37740325927734 23.10022163391113 24.4300537109375 23.7175407409668 23.38090324401855 C 24.739990234375 21.64323425292969 24.90625 19.89038276672363 24.1737003326416 18.5717830657959 L 19.37078094482422 9.926532745361328 C 18.47613143920898 8.316164016723633 16.84218978881836 7.354753494262695 15.00000095367432 7.354753494262695 M 15.00000095367432 6.354755401611328 C 17.05096435546875 6.354755401611328 19.10192489624023 7.383468627929688 20.24494171142578 9.440893173217773 L 25.04786109924316 18.08614349365234 C 27.26963043212891 22.0853328704834 22.66304016113281 28.10696411132812 18.08813095092773 28.10696411132812 L 11.92944145202637 28.10696411132812 C 7.354541778564453 28.10696411132812 2.730371475219727 22.0853328704834 4.952140808105469 18.08614349365234 L 9.755060195922852 9.440893173217773 C 10.89807510375977 7.383468627929688 12.94903755187988 6.354755401611328 15.00000095367432 6.354755401611328 Z" stroke="none" fill="#4f4bb6"/>
  </g>
  <g id="Elipse_3" data-name="Elipse 3" transform="matrix(0.883, 0.469, -0.469, 0.883, 5.634, 12.559)" fill="#fff" stroke="#4f4bb6" stroke-width="1">
    <ellipse cx="3.5" cy="6" rx="3.5" ry="6" stroke="none"/>
    <ellipse cx="3.5" cy="6" rx="3" ry="5.5" fill="none"/>
  </g>
  <g id="Elipse_4" data-name="Elipse 4" transform="matrix(-0.883, 0.469, -0.469, -0.883, 30, 23.155)" fill="#fff" stroke="#4f4bb6" stroke-width="1">
    <ellipse cx="3.5" cy="6" rx="3.5" ry="6" stroke="none"/>
    <ellipse cx="3.5" cy="6" rx="3" ry="5.5" fill="none"/>
  </g>
  <g id="Elipse_2" data-name="Elipse 2" transform="translate(8)" fill="#fff" stroke="#4f4bb6" stroke-width="1">
    <circle cx="7" cy="7" r="7" stroke="none"/>
    <circle cx="7" cy="7" r="6.5" fill="none"/>
  </g>
</svg>
