<svg id="jardincen-logo" xmlns="http://www.w3.org/2000/svg" width="137.083" height="52.985" viewBox="0 0 137.083 52.985">
  <text id="Garden_Store" data-name="Garden Store" transform="translate(27.063 30.096)" fill="#ffffff" stroke="#00476a" stroke-width="0.1" font-size="15" font-family="Cabin-Regular, Cabin"><tspan x="0" y="0">Garden Store</tspan></text>
  <g id="wreath" transform="matrix(-0.799, 0.602, -0.602, -0.799, 43.569, 34.452)">
    <path id="Trazado_6" data-name="Trazado 6" d="M11.027,1.28A5.69,5.69,0,0,1,14.785.841.425.425,0,0,1,15.03,1a4.67,4.67,0,0,1-4.307.936.775.775,0,0,0-.421-.066,11.058,11.058,0,0,0-1.169.377c.656.192,1.349.3,2,.506.256.056.5.219.795.106a13.871,13.871,0,0,1,2.91-.45,5.862,5.862,0,0,1,4.342-.333,5.364,5.364,0,0,1,2.493,1.853.332.332,0,0,1-.13.51c-.1.068-.2.008-.289-.008a2.376,2.376,0,0,0-.964-.153c-.588.007-1.185.25-1.776.28a3.95,3.95,0,0,1-2.751-.788,6.557,6.557,0,0,1-.942-.957,13.238,13.238,0,0,0-2.477.326,19.042,19.042,0,0,1,5.306,3.037c.074.055.145.148.263.124a9.5,9.5,0,0,1,1.475-.03c.165.017.316-.115.476-.2a4.132,4.132,0,0,1,2.754-.484,6.148,6.148,0,0,1,3.028,1.577.312.312,0,0,1-.02.494,2.529,2.529,0,0,1-.613.183,8.443,8.443,0,0,1-4.018.141,2.076,2.076,0,0,1-1.495-1.308,8.177,8.177,0,0,0-1.231-.019c.285.341.627.626.936.95a17.836,17.836,0,0,1,1.352,1.577,1.206,1.206,0,0,0,.337.337c.5.31.973.652,1.445,1a.316.316,0,0,0,.283.077,7.925,7.925,0,0,1,1.913.1,3.572,3.572,0,0,1,1.12.338.463.463,0,0,1-.253.133,9.066,9.066,0,0,1-2.24-.017c.322.187.511.627.95.586a2.452,2.452,0,0,1,1.956,1.046,6.6,6.6,0,0,1,1.11,3.064.321.321,0,0,1-.427.351,6.173,6.173,0,0,1-2.18-1.347,3.278,3.278,0,0,1-.974-2.6c.042-.2-.145-.292-.251-.4a15.927,15.927,0,0,0-1.876-1.415,24.786,24.786,0,0,1,1.472,2.854,21.346,21.346,0,0,1,1.139,3.5c.023.21.226.278.359.4A3.9,3.9,0,0,1,25.748,20.1a12.2,12.2,0,0,1-.776,4.6c-.078.2-.132.457-.34.571a.323.323,0,0,1-.465-.138A9.7,9.7,0,0,1,22.895,21.5a6.981,6.981,0,0,1,.366-3.321,3.786,3.786,0,0,0,.287-.771,19.418,19.418,0,0,0-2.663-6.57,4.112,4.112,0,0,0-.343-.488,19.985,19.985,0,0,1,.526,2.223A5.463,5.463,0,0,1,22.085,16a8.14,8.14,0,0,1-1.466,4.245.276.276,0,0,1-.494.008c-.013-.3.077-.626.056-.928a7.075,7.075,0,0,0-.481-1.734,5.108,5.108,0,0,1,.23-3.333,13.864,13.864,0,0,1,.764-1.489,9.327,9.327,0,0,0-.4-1.793,7.94,7.94,0,0,1-.48,2.277l-.128-.02a8.4,8.4,0,0,1,.267-3.2,5.039,5.039,0,0,0-1.228-1.949,15.338,15.338,0,0,0-2.808-2.328c.053.193.073.434.268.517A3.076,3.076,0,0,1,17.567,8.03a7.159,7.159,0,0,1,.044,3.5,8.488,8.488,0,0,1-.347,1.306c-.085.2-.374.256-.474.1a11.134,11.134,0,0,1-1.119-1.882,5.5,5.5,0,0,1-.565-3,3.588,3.588,0,0,1,.627-1.562c-.124-.361-.247-.723-.4-1.067a.642.642,0,0,0-.28-.251A19.115,19.115,0,0,0,13.1,4.179,12.293,12.293,0,0,1,14.27,6.163a1.332,1.332,0,0,1,.129.6.573.573,0,0,1-.345-.034,2.642,2.642,0,0,1-.923-.853,9.658,9.658,0,0,1-1.02-1.852c-.072-.153-.127-.331-.312-.362a17.7,17.7,0,0,0-1.791-.521,8.371,8.371,0,0,1,.808.415,3.76,3.76,0,0,1,1.5,2.246,9.85,9.85,0,0,1,.037,4.085c-.032.177-.087.438-.3.47-.158.058-.253-.087-.346-.17A8.916,8.916,0,0,1,9.7,7.013,4.76,4.76,0,0,1,9.781,3.6a1.142,1.142,0,0,0-.538-.64,21.245,21.245,0,0,0-8.8.168.253.253,0,0,1-.3-.356.376.376,0,0,1,.3-.258,22.01,22.01,0,0,1,7.713-.387c.248.064.5-.1.758-.187.687-.272,1.4-.433,2.111-.661M16.3,2.443a15.952,15.952,0,0,1,4,.889,4.644,4.644,0,0,0-4-.889m-.747.368a3.4,3.4,0,0,0,2.931,1.236c.568-.021,1.14-.231,1.7-.29a13.241,13.241,0,0,0-4.636-.947M10.5,4.023a24.747,24.747,0,0,1,1.5,5.1,9.808,9.808,0,0,0-.056-2.645A3.588,3.588,0,0,0,10.5,4.023m-.435.147a4.324,4.324,0,0,0,.091,2.589,7.554,7.554,0,0,0,1.43,2.471,5.43,5.43,0,0,0-.119-.7,23.25,23.25,0,0,0-1.016-3.57,3.167,3.167,0,0,0-.386-.788M20.413,6.321c1.354.176,2.7.376,4.029.622a4.212,4.212,0,0,0-4.029-.622m-4.529.756A3.313,3.313,0,0,0,15.6,9.135a6.964,6.964,0,0,0,1.148,2.758,14.013,14.013,0,0,0-.2-2.021,14.6,14.6,0,0,0-.665-2.795m4.249-.348a1.6,1.6,0,0,0,1.007.748,7.5,7.5,0,0,0,3.473-.054,2.229,2.229,0,0,0-.4-.1,37.388,37.388,0,0,0-4.083-.6m-3.774.38c.188.811.406,1.6.534,2.442.113.612.152,1.245.243,1.858a7.715,7.715,0,0,0,.171-1.724,3.47,3.47,0,0,0-.948-2.576m8.114,5.214a14.987,14.987,0,0,1,1.877,2.286,3.053,3.053,0,0,0-1.877-2.286m-.395.25a2.486,2.486,0,0,0,.289,1.105A3.93,3.93,0,0,0,26.3,15.384a7.919,7.919,0,0,0-1.221-1.806,8.274,8.274,0,0,0-1-1.006m-4,4.439a16.007,16.007,0,0,0,.523,1.6,21.048,21.048,0,0,0,.181-5.032,4.775,4.775,0,0,0-.7,3.43m1.125-3.076a24.468,24.468,0,0,1-.245,4.727,5.96,5.96,0,0,0,.245-4.727m2.727,4.09a6.182,6.182,0,0,0-.481,2.875,7.9,7.9,0,0,0,.846,3.023,22.5,22.5,0,0,0-.238-5.492,1.567,1.567,0,0,0-.127-.407m.481.122a22.168,22.168,0,0,1,.27,5.459,11.581,11.581,0,0,0,.441-2.4A4.45,4.45,0,0,0,24.418,18.147Z" transform="translate(5.058 -0.297) rotate(14)" fill="#ffffff"/>
    <path id="Trazado_6_-_Contorno" data-name="Trazado 6 - Contorno" d="M13.593.666a4.676,4.676,0,0,1,1.2.151.453.453,0,0,1,.258.171l.016.019-.019.016a4.982,4.982,0,0,1-3.091,1.134,3.932,3.932,0,0,1-1.24-.194c-.031-.008-.064-.019-.1-.03a.706.706,0,0,0-.22-.048.343.343,0,0,0-.09.012,10.687,10.687,0,0,0-1.1.35c.276.078.562.143.839.206.36.082.731.166,1.083.279a2,2,0,0,1,.209.062,1.164,1.164,0,0,0,.367.081.551.551,0,0,0,.2-.038,13.863,13.863,0,0,1,2.913-.451,6.364,6.364,0,0,1,2.662-.607,5.169,5.169,0,0,1,1.694.275,5.4,5.4,0,0,1,2.5,1.861.287.287,0,0,1,.074.265.371.371,0,0,1-.212.282.206.206,0,0,1-.117.035.46.46,0,0,1-.129-.025c-.021-.006-.041-.012-.06-.016a2.663,2.663,0,0,0-.809-.16c-.05,0-.1,0-.148.007a4.665,4.665,0,0,0-.929.141,5.246,5.246,0,0,1-.848.139c-.116.01-.234.015-.351.015a3.962,3.962,0,0,1-2.417-.808,5.571,5.571,0,0,1-.828-.826L14.8,2.84a13.249,13.249,0,0,0-2.383.307,18.832,18.832,0,0,1,5.239,3.012c.015.011.03.024.046.038a.233.233,0,0,0,.2.08,9.514,9.514,0,0,1,1.482-.03l.028,0a.64.64,0,0,0,.307-.122c.042-.025.085-.051.128-.073a4.127,4.127,0,0,1,2.061-.546,4.2,4.2,0,0,1,.708.06,6.12,6.12,0,0,1,3.04,1.583.275.275,0,0,1,.119.225.366.366,0,0,1-.141.307,1.645,1.645,0,0,1-.458.15c-.055.012-.11.024-.165.038A12.13,12.13,0,0,1,22.48,8.2a5.52,5.52,0,0,1-1.5-.189A2.093,2.093,0,0,1,19.474,6.7a8.171,8.171,0,0,0-1.161-.02c.165.192.349.369.528.541.124.119.252.242.374.37a17.942,17.942,0,0,1,1.354,1.579A1.185,1.185,0,0,0,20.9,9.5c.475.3.923.615,1.448,1a.292.292,0,0,0,.263.072c.177-.016.358-.024.542-.024a8.911,8.911,0,0,1,1.38.119,3.629,3.629,0,0,1,1.128.341l.034.019-.031.023-.033.025a.4.4,0,0,1-.234.113,10.405,10.405,0,0,1-1.1.061,8.219,8.219,0,0,1-1.04-.064,2.234,2.234,0,0,1,.216.2.777.777,0,0,0,.628.324h.007a2.48,2.48,0,0,1,1.971,1.056A6.58,6.58,0,0,1,27.2,15.843a.321.321,0,0,1-.073.269.361.361,0,0,1-.269.137.248.248,0,0,1-.121-.031,6.177,6.177,0,0,1-2.186-1.351,3.309,3.309,0,0,1-.982-2.625c.03-.145-.07-.228-.166-.308-.028-.023-.054-.045-.078-.068l-.31-.254a13.317,13.317,0,0,0-1.48-1.109l.111.2a22.2,22.2,0,0,1,1.316,2.578,21.429,21.429,0,0,1,1.141,3.5c.016.145.12.217.23.293a1.231,1.231,0,0,1,.121.091,3.893,3.893,0,0,1,1.322,2.929A12.069,12.069,0,0,1,25,24.705c-.014.035-.026.071-.039.108a.792.792,0,0,1-.312.477.376.376,0,0,1-.188.051.341.341,0,0,1-.312-.2,9.744,9.744,0,0,1-1.274-3.634,7.011,7.011,0,0,1,.368-3.332,2.046,2.046,0,0,1,.132-.314,1.2,1.2,0,0,0,.153-.447,19.319,19.319,0,0,0-2.658-6.559l-.039-.062c-.071-.11-.143-.223-.223-.328a20.25,20.25,0,0,1,.49,2.1A5.474,5.474,0,0,1,22.11,16a8.159,8.159,0,0,1-1.47,4.258.335.335,0,0,1-.285.167.263.263,0,0,1-.253-.164l0-.008a2.861,2.861,0,0,1,.029-.451,2.627,2.627,0,0,0,.027-.476,3.848,3.848,0,0,0-.3-1.19c-.064-.175-.131-.355-.184-.539a5.162,5.162,0,0,1,.23-3.349,6.667,6.667,0,0,1,.49-.988c.092-.162.187-.329.272-.5a9.548,9.548,0,0,0-.364-1.674,7.606,7.606,0,0,1-.47,2.172l-.008.019-.02,0-.127-.02-.02,0,0-.02a8.515,8.515,0,0,1,.266-3.2A5.027,5.027,0,0,0,18.7,8.1a15.6,15.6,0,0,0-2.751-2.292l.011.045c.038.163.078.331.227.395a3.107,3.107,0,0,1,1.4,1.771,7.074,7.074,0,0,1,.045,3.514l-.023.106a7.827,7.827,0,0,1-.326,1.2.342.342,0,0,1-.312.206.236.236,0,0,1-.206-.1,11.113,11.113,0,0,1-1.12-1.885,5.608,5.608,0,0,1-.567-3.013A3.6,3.6,0,0,1,15.7,6.486c-.12-.351-.245-.714-.4-1.053a.489.489,0,0,0-.215-.2l-.056-.035a19.526,19.526,0,0,0-1.865-.958l.048.072a11.381,11.381,0,0,1,1.074,1.846,1.346,1.346,0,0,1,.131.614V6.79l-.054,0c-.042,0-.085.007-.128.007a.363.363,0,0,1-.2-.048,2.659,2.659,0,0,1-.93-.859,9.637,9.637,0,0,1-1.023-1.857l-.026-.057c-.061-.136-.118-.265-.268-.29-.5-.168-1.035-.341-1.589-.474l.13.06a3.148,3.148,0,0,1,.494.263A3.787,3.787,0,0,1,12.343,5.8a9.838,9.838,0,0,1,.037,4.1c-.029.159-.082.453-.319.49a.231.231,0,0,1-.077.014.358.358,0,0,1-.241-.141c-.017-.017-.034-.034-.05-.049A8.881,8.881,0,0,1,9.679,7.021,4.792,4.792,0,0,1,9.753,3.6a1.106,1.106,0,0,0-.52-.617A19.467,19.467,0,0,0,5.353,2.6a22.755,22.755,0,0,0-4.906.55.287.287,0,0,1-.087.014A.252.252,0,0,1,.15,3.056a.316.316,0,0,1-.03-.292.4.4,0,0,1,.321-.274,22.812,22.812,0,0,1,4.994-.565A20.755,20.755,0,0,1,8.16,2.1a.458.458,0,0,0,.114.014,1.206,1.206,0,0,0,.438-.124c.064-.027.129-.054.194-.076.436-.173.893-.3,1.334-.43.255-.073.518-.148.778-.232A6.254,6.254,0,0,1,13.593.666Zm1.4.334A.378.378,0,0,0,14.78.865,4.631,4.631,0,0,0,13.593.716a6.21,6.21,0,0,0-2.556.587c-.263.085-.527.16-.782.233-.44.126-.9.256-1.33.429-.065.022-.13.049-.192.076a1.241,1.241,0,0,1-.457.127.494.494,0,0,1-.124-.015,20.725,20.725,0,0,0-2.716-.177A22.772,22.772,0,0,0,.45,2.54a.354.354,0,0,0-.283.24.269.269,0,0,0,.024.248.209.209,0,0,0,.243.077,22.8,22.8,0,0,1,4.919-.552,19.5,19.5,0,0,1,3.895.383,1.157,1.157,0,0,1,.556.654l0,.01,0,.01a4.739,4.739,0,0,0-.077,3.394,8.83,8.83,0,0,0,2,3.167c.016.014.033.032.051.05a.317.317,0,0,0,.206.126.182.182,0,0,0,.062-.012h0c.2-.03.253-.3.28-.449a9.789,9.789,0,0,0-.036-4.074A3.738,3.738,0,0,0,10.8,3.581a3.112,3.112,0,0,0-.487-.259c-.106-.048-.215-.1-.319-.155l.017-.046a17.7,17.7,0,0,1,1.793.522c.172.029.238.176.3.318l.026.057a9.591,9.591,0,0,0,1.018,1.848,2.619,2.619,0,0,0,.914.845.319.319,0,0,0,.177.041c.041,0,.083,0,.123-.007h.009a1.305,1.305,0,0,0-.127-.57,11.344,11.344,0,0,0-1.07-1.839l-.142-.212.077.033a19.179,19.179,0,0,1,1.95.995l.056.036a.526.526,0,0,1,.234.227c.154.343.279.709.4,1.063l.006.017-.007.01a3.558,3.558,0,0,0-.622,1.551,5.561,5.561,0,0,0,.563,2.986,11.073,11.073,0,0,0,1.116,1.877.188.188,0,0,0,.165.083.3.3,0,0,0,.266-.175,7.789,7.789,0,0,0,.323-1.2l.023-.106a7.026,7.026,0,0,0-.043-3.488A3.057,3.057,0,0,0,16.169,6.3c-.17-.072-.214-.261-.254-.428-.008-.035-.017-.07-.026-.1L15.873,5.7l.054.033A15.51,15.51,0,0,1,18.74,8.068a5.08,5.08,0,0,1,1.234,1.959l0,.008,0,.008a8.428,8.428,0,0,0-.268,3.17l.09.014a7.984,7.984,0,0,0,.47-2.251l.049-.006a9.319,9.319,0,0,1,.4,1.8v.008l0,.007c-.087.171-.183.341-.277.505a6.631,6.631,0,0,0-.487.981,5.112,5.112,0,0,0-.229,3.317c.053.182.119.362.183.536a3.886,3.886,0,0,1,.3,1.2,2.664,2.664,0,0,1-.027.484,2.854,2.854,0,0,0-.029.439.214.214,0,0,0,.2.129.286.286,0,0,0,.243-.144A8.11,8.11,0,0,0,22.06,16a5.422,5.422,0,0,0-1.011-3.411l0,0V12.58a20.046,20.046,0,0,0-.526-2.22l.043-.024a3.559,3.559,0,0,1,.306.43l.039.061a19.369,19.369,0,0,1,2.666,6.579v.006a1.247,1.247,0,0,1-.158.469,2.016,2.016,0,0,0-.13.308,6.964,6.964,0,0,0-.365,3.31,9.7,9.7,0,0,0,1.269,3.617.293.293,0,0,0,.268.174.327.327,0,0,0,.163-.045.744.744,0,0,0,.29-.45c.013-.037.026-.073.039-.108a12.019,12.019,0,0,0,.775-4.591,3.845,3.845,0,0,0-1.3-2.893,1.185,1.185,0,0,0-.118-.088.46.46,0,0,1-.251-.325A21.389,21.389,0,0,0,22.912,13.3,22.162,22.162,0,0,0,21.6,10.725l-.158-.279-.046-.082.081.048a12.7,12.7,0,0,1,1.568,1.162l.311.255c.024.023.049.045.076.067.1.086.219.182.183.354a3.258,3.258,0,0,0,.968,2.582,6.137,6.137,0,0,0,2.171,1.341.205.205,0,0,0,.1.026.31.31,0,0,0,.23-.119.273.273,0,0,0,.063-.229A6.535,6.535,0,0,0,26.041,12.8a2.43,2.43,0,0,0-1.931-1.036l-.062,0a.875.875,0,0,1-.609-.342,1.555,1.555,0,0,0-.3-.25l.016-.046a8.065,8.065,0,0,0,1.14.078,10.382,10.382,0,0,0,1.094-.061.365.365,0,0,0,.207-.1l0,0a3.689,3.689,0,0,0-1.078-.317,8.86,8.86,0,0,0-1.372-.118c-.182,0-.362.008-.535.023a.355.355,0,0,1-.072.007.344.344,0,0,1-.229-.09c-.523-.387-.969-.705-1.442-1a1.225,1.225,0,0,1-.343-.344,17.889,17.889,0,0,0-1.35-1.574c-.121-.127-.249-.249-.372-.368a7.4,7.4,0,0,1-.565-.583l-.032-.038.05,0a8.239,8.239,0,0,1,1.235.019l.016,0,.005.016a2.04,2.04,0,0,0,1.478,1.292,5.471,5.471,0,0,0,1.486.188A12.081,12.081,0,0,0,25,7.821c.054-.014.11-.026.165-.038a1.594,1.594,0,0,0,.441-.142.315.315,0,0,0,.118-.263.229.229,0,0,0-.1-.188,6.079,6.079,0,0,0-3.019-1.573,4.151,4.151,0,0,0-.7-.059,4.079,4.079,0,0,0-2.037.54c-.043.022-.086.047-.127.072a.618.618,0,0,1-.365.127,9.52,9.52,0,0,0-1.47.03.2.2,0,0,1-.04,0,.3.3,0,0,1-.2-.1c-.015-.013-.03-.025-.045-.037a18.854,18.854,0,0,0-5.3-3.034l-.074-.029.077-.019a13.152,13.152,0,0,1,2.482-.327h.012l.008.009.118.135a5.534,5.534,0,0,0,.82.819,3.912,3.912,0,0,0,2.386.8c.115,0,.232,0,.347-.015a5.209,5.209,0,0,0,.84-.138,4.7,4.7,0,0,1,.937-.142c.048,0,.1-.007.151-.007a2.69,2.69,0,0,1,.821.162.622.622,0,0,1,.062.016.416.416,0,0,0,.115.023.157.157,0,0,0,.091-.028l0,0a.32.32,0,0,0,.184-.245.24.24,0,0,0-.061-.223A5.361,5.361,0,0,0,19.165,2.1a5.119,5.119,0,0,0-1.678-.273,6.315,6.315,0,0,0-2.645.6l-.009,0a13.842,13.842,0,0,0-2.9.449.6.6,0,0,1-.218.04,1.2,1.2,0,0,1-.383-.084,1.965,1.965,0,0,0-.206-.061c-.352-.113-.723-.2-1.082-.279-.3-.069-.615-.14-.915-.227l-.072-.021.071-.026a11.157,11.157,0,0,1,1.172-.378.391.391,0,0,1,.1-.013.743.743,0,0,1,.236.05c.032.011.063.021.1.029a3.886,3.886,0,0,0,1.226.191A4.929,4.929,0,0,0,14.994,1Zm2.415,1.293h0A4.531,4.531,0,0,1,20.32,3.313l-.024.043a15.849,15.849,0,0,0-4-.888l0-.049A5.075,5.075,0,0,1,17.409,2.293Zm2.767.968a4.5,4.5,0,0,0-2.767-.918h0a5.006,5.006,0,0,0-.936.089A15.914,15.914,0,0,1,20.177,3.261ZM15.5,2.784h.054a13.219,13.219,0,0,1,4.644.948l-.007.048a6.746,6.746,0,0,0-.752.137,5.4,5.4,0,0,1-.954.153c-.093.007-.187.011-.28.011a3.409,3.409,0,0,1-2.671-1.256Zm4.589.96a13.176,13.176,0,0,0-4.481-.907,3.361,3.361,0,0,0,2.6,1.2c.092,0,.185,0,.277-.011a5.363,5.363,0,0,0,.946-.152C19.646,3.822,19.869,3.773,20.089,3.744Zm-9.645.212L10.514,4a3.6,3.6,0,0,1,1.45,2.472,9.924,9.924,0,0,1,.057,2.651l-.049,0a24.8,24.8,0,0,0-1.494-5.1Zm1.542,4.991a9.437,9.437,0,0,0-.07-2.464,3.6,3.6,0,0,0-1.356-2.391A24.566,24.566,0,0,1,11.985,8.947Zm-1.93-4.831.03.038a2.53,2.53,0,0,1,.334.654c.019.047.037.094.056.14a23.138,23.138,0,0,1,1.018,3.575v.006a5.435,5.435,0,0,1,.118.7l.006.077-.05-.059a7.578,7.578,0,0,1-1.435-2.48,4.357,4.357,0,0,1-.091-2.6Zm1.5,5.037a6.055,6.055,0,0,0-.11-.614V8.533a23.09,23.09,0,0,0-1.015-3.567c-.019-.046-.037-.093-.056-.14a2.693,2.693,0,0,0-.3-.6,4.322,4.322,0,0,0,.1,2.526A7.5,7.5,0,0,0,11.554,9.153ZM21.8,6.02h0a4.759,4.759,0,0,1,2.653.9l-.019.045c-1.2-.222-2.519-.425-4.028-.622l-.093-.012L20.4,6.3A3.658,3.658,0,0,1,21.8,6.02ZM24.33,6.9A4.655,4.655,0,0,0,21.8,6.07a3.6,3.6,0,0,0-1.291.239C21.933,6.495,23.185,6.688,24.33,6.9Zm-4.238-.2.043,0a35.852,35.852,0,0,1,3.9.562l.183.033a2.247,2.247,0,0,1,.4.1l.09.031-.093.017a11.763,11.763,0,0,1-2.1.24A4.727,4.727,0,0,1,21.133,7.5a1.58,1.58,0,0,1-1.022-.761Zm4.418.715a2.114,2.114,0,0,0-.3-.067l-.184-.033a36.207,36.207,0,0,0-3.853-.558,1.569,1.569,0,0,0,.972.7,4.677,4.677,0,0,0,1.368.184A11.346,11.346,0,0,0,24.511,7.415Zm-8.623-.4.02.053a14.62,14.62,0,0,1,.667,2.8,14.049,14.049,0,0,1,.2,2.025v.082l-.046-.067a6.961,6.961,0,0,1-1.152-2.768,3.356,3.356,0,0,1,.286-2.073Zm.835,4.795a14.488,14.488,0,0,0-.2-1.934,14.875,14.875,0,0,0-.644-2.736,3.313,3.313,0,0,0-.257,1.99A6.884,6.884,0,0,0,16.722,11.809Zm-.4-4.771.058.051a3.533,3.533,0,0,1,.957,2.595,7.744,7.744,0,0,1-.172,1.729l-.049,0c-.038-.256-.068-.519-.1-.774-.04-.357-.081-.727-.147-1.084-.095-.624-.243-1.233-.386-1.823-.05-.206-.1-.411-.148-.618Zm.823,4.223a7.657,7.657,0,0,0,.142-1.576,3.553,3.553,0,0,0-.881-2.5c.042.18.086.36.129.539.143.59.292,1.2.386,1.826.066.357.108.728.148,1.086C17.089,10.84,17.113,11.052,17.141,11.262Zm7.253,1.012.087.024a3.11,3.11,0,0,1,1.894,2.3l-.045.02a15.074,15.074,0,0,0-1.874-2.282Zm1.88,2.168a3.008,3.008,0,0,0-1.716-2.068A15.473,15.473,0,0,1,26.273,14.442ZM24.054,12.52l.041.032a6.859,6.859,0,0,1,.855.849l.143.16a7.871,7.871,0,0,1,1.225,1.813l.026.059-.059-.026a3.926,3.926,0,0,1-1.939-1.718,2.485,2.485,0,0,1-.292-1.117Zm2.192,2.815a8.032,8.032,0,0,0-1.19-1.741l-.143-.159a7.152,7.152,0,0,0-.807-.81,2.458,2.458,0,0,0,.285,1.041A3.86,3.86,0,0,0,26.246,15.335Zm-5.44-1.828.007.072a20.908,20.908,0,0,1-.181,5.038l-.049,0c-.062-.214-.142-.425-.22-.628a5.531,5.531,0,0,1-.3-.977,4.8,4.8,0,0,1,.707-3.448ZM20.6,18.5a20.818,20.818,0,0,0,.172-4.841,4.737,4.737,0,0,0-.661,3.349,5.493,5.493,0,0,0,.3.968C20.475,18.144,20.541,18.319,20.6,18.5Zm.634-4.573a5.979,5.979,0,0,1-.245,4.747l-.047-.014a24.23,24.23,0,0,0,.244-4.722Zm-.219,4.566a5.942,5.942,0,0,0,.228-4.41A24.253,24.253,0,0,1,21.014,18.491Zm2.923-.528.023.051a1.6,1.6,0,0,1,.128.413,22.034,22.034,0,0,1,.238,5.5l-.005.092-.042-.082A7.984,7.984,0,0,1,23.43,20.9a6.225,6.225,0,0,1,.483-2.887Zm.345,5.866a21.793,21.793,0,0,0-.243-5.393,1.472,1.472,0,0,0-.1-.349A6.19,6.19,0,0,0,23.48,20.9,7.944,7.944,0,0,0,24.281,23.829Zm.156-5.7a4.4,4.4,0,0,1,.717,3.081,11.548,11.548,0,0,1-.442,2.4l-.049-.009a22.2,22.2,0,0,0-.27-5.453Zm.29,5.245a11.38,11.38,0,0,0,.377-2.167,4.467,4.467,0,0,0-.643-2.966A22.147,22.147,0,0,1,24.727,23.377Z" transform="translate(5.058 -0.297) rotate(14)" fill="#344563"/>
  </g>
  <g id="wreath-2" data-name="wreath" transform="matrix(0.799, -0.602, 0.602, 0.799, 89.043, 19.383)">
    <path id="Trazado_6-2" data-name="Trazado 6" d="M10.9.589A5.69,5.69,0,0,1,14.662.15a.425.425,0,0,1,.245.163,4.67,4.67,0,0,1-4.307.936.774.774,0,0,0-.421-.066,11.058,11.058,0,0,0-1.169.377c.656.192,1.349.3,2,.506.256.056.5.219.795.106a13.871,13.871,0,0,1,2.91-.45,5.862,5.862,0,0,1,4.342-.333A5.364,5.364,0,0,1,21.544,3.24a.332.332,0,0,1-.13.51c-.1.068-.2.008-.289-.008a2.376,2.376,0,0,0-.964-.153c-.588.007-1.185.25-1.776.28a3.95,3.95,0,0,1-2.751-.788,6.557,6.557,0,0,1-.942-.957,13.238,13.238,0,0,0-2.477.326A19.042,19.042,0,0,1,17.52,5.486c.074.055.145.148.263.124a9.5,9.5,0,0,1,1.475-.03c.165.017.316-.115.476-.2A4.132,4.132,0,0,1,22.489,4.9a6.148,6.148,0,0,1,3.028,1.577.312.312,0,0,1-.02.494,2.529,2.529,0,0,1-.613.183,8.443,8.443,0,0,1-4.018.141A2.076,2.076,0,0,1,19.37,5.988a8.177,8.177,0,0,0-1.231-.019c.285.341.627.626.936.95A17.836,17.836,0,0,1,20.427,8.5a1.206,1.206,0,0,0,.337.337c.5.31.973.652,1.445,1a.316.316,0,0,0,.283.077,7.925,7.925,0,0,1,1.913.1,3.572,3.572,0,0,1,1.12.338.464.464,0,0,1-.253.133,9.067,9.067,0,0,1-2.24-.017c.322.187.511.627.95.586a2.452,2.452,0,0,1,1.956,1.046,6.6,6.6,0,0,1,1.11,3.064.321.321,0,0,1-.427.351,6.173,6.173,0,0,1-2.18-1.347,3.278,3.278,0,0,1-.974-2.6c.042-.2-.145-.292-.251-.4a15.926,15.926,0,0,0-1.876-1.415A24.786,24.786,0,0,1,22.812,12.6a21.346,21.346,0,0,1,1.139,3.5c.023.21.226.278.359.4a3.9,3.9,0,0,1,1.314,2.912,12.2,12.2,0,0,1-.776,4.6c-.078.2-.132.457-.34.571a.323.323,0,0,1-.465-.138,9.7,9.7,0,0,1-1.272-3.627,6.981,6.981,0,0,1,.366-3.321,3.786,3.786,0,0,0,.287-.771,19.417,19.417,0,0,0-2.663-6.57,4.111,4.111,0,0,0-.343-.488,19.987,19.987,0,0,1,.526,2.223,5.463,5.463,0,0,1,1.016,3.427A8.14,8.14,0,0,1,20.5,19.556a.276.276,0,0,1-.494.008c-.013-.3.077-.626.056-.928a7.075,7.075,0,0,0-.481-1.734,5.108,5.108,0,0,1,.23-3.333,13.864,13.864,0,0,1,.764-1.489,9.327,9.327,0,0,0-.4-1.793,7.94,7.94,0,0,1-.48,2.277l-.128-.02a8.4,8.4,0,0,1,.267-3.2A5.039,5.039,0,0,0,18.6,7.394a15.338,15.338,0,0,0-2.808-2.328c.053.193.073.434.268.517a3.076,3.076,0,0,1,1.385,1.756,7.159,7.159,0,0,1,.044,3.5,8.488,8.488,0,0,1-.347,1.306c-.085.2-.374.256-.474.1a11.134,11.134,0,0,1-1.119-1.882,5.5,5.5,0,0,1-.565-3A3.588,3.588,0,0,1,15.61,5.8c-.124-.361-.247-.723-.4-1.067a.642.642,0,0,0-.28-.251,19.115,19.115,0,0,0-1.947-.994,12.293,12.293,0,0,1,1.167,1.984,1.332,1.332,0,0,1,.129.6.573.573,0,0,1-.345-.034,2.642,2.642,0,0,1-.923-.853,9.658,9.658,0,0,1-1.02-1.852c-.072-.153-.127-.331-.312-.362a17.7,17.7,0,0,0-1.791-.521,8.372,8.372,0,0,1,.808.415,3.76,3.76,0,0,1,1.5,2.246A9.85,9.85,0,0,1,12.233,9.2c-.032.177-.087.438-.3.47-.158.058-.253-.087-.346-.17A8.916,8.916,0,0,1,9.581,6.322,4.76,4.76,0,0,1,9.658,2.91a1.142,1.142,0,0,0-.538-.64,21.245,21.245,0,0,0-8.8.168.253.253,0,0,1-.3-.356.376.376,0,0,1,.3-.258,22.01,22.01,0,0,1,7.713-.387c.248.064.5-.1.758-.187C9.48.978,10.193.818,10.9.589m5.274,1.162a15.952,15.952,0,0,1,4,.889,4.644,4.644,0,0,0-4-.889m-.747.368a3.4,3.4,0,0,0,2.931,1.236c.568-.021,1.14-.231,1.7-.29a13.241,13.241,0,0,0-4.636-.946M10.378,3.332a24.748,24.748,0,0,1,1.5,5.1,9.809,9.809,0,0,0-.056-2.645,3.588,3.588,0,0,0-1.439-2.456m-.435.147a4.324,4.324,0,0,0,.091,2.589,7.554,7.554,0,0,0,1.43,2.471,5.43,5.43,0,0,0-.119-.7,23.251,23.251,0,0,0-1.016-3.57,3.167,3.167,0,0,0-.386-.788M20.291,5.63c1.354.176,2.7.376,4.029.622a4.212,4.212,0,0,0-4.029-.622m-4.529.756a3.313,3.313,0,0,0-.284,2.058A6.964,6.964,0,0,0,16.626,11.2a14.013,14.013,0,0,0-.2-2.021,14.6,14.6,0,0,0-.665-2.795m4.249-.349a1.6,1.6,0,0,0,1.007.748,7.5,7.5,0,0,0,3.473-.054,2.229,2.229,0,0,0-.4-.1,37.388,37.388,0,0,0-4.083-.6m-3.774.38c.188.811.406,1.6.534,2.442.113.612.152,1.245.243,1.858a7.715,7.715,0,0,0,.171-1.724,3.47,3.47,0,0,0-.948-2.576m8.114,5.214a14.987,14.987,0,0,1,1.877,2.286,3.053,3.053,0,0,0-1.877-2.286m-.395.25a2.486,2.486,0,0,0,.289,1.105,3.93,3.93,0,0,0,1.927,1.707,7.919,7.919,0,0,0-1.221-1.806,8.274,8.274,0,0,0-1-1.006m-4,4.439a16.005,16.005,0,0,0,.523,1.6,21.049,21.049,0,0,0,.181-5.032,4.775,4.775,0,0,0-.7,3.43m1.125-3.076a24.468,24.468,0,0,1-.245,4.727,5.96,5.96,0,0,0,.245-4.727m2.727,4.09a6.182,6.182,0,0,0-.481,2.875,7.9,7.9,0,0,0,.846,3.023,22.5,22.5,0,0,0-.238-5.492,1.567,1.567,0,0,0-.127-.407m.481.122a22.168,22.168,0,0,1,.27,5.459,11.581,11.581,0,0,0,.441-2.4A4.45,4.45,0,0,0,24.3,17.456Z" transform="translate(9.152 2.407) rotate(14)" fill="#ffffff" stroke="#00476a" stroke-width="0.05"/>
  </g>
</svg>
