<svg id="logo-pestaña" xmlns="http://www.w3.org/2000/svg" width="104.623" height="72.493" viewBox="0 0 104.623 72.493">
  <g id="wreath" transform="matrix(-0.866, 0.5, -0.5, -0.866, 77.131, 41.131)">
    <path id="Trazado_6" data-name="Trazado 6" d="M21.964.715A14.978,14.978,0,0,1,29.552-.413a.764.764,0,0,1,.472.226,12.252,12.252,0,0,1-8.748,1.969,1.871,1.871,0,0,0-.838-.054c-.8.2-1.6.459-2.388.727,1.292.224,2.67.308,3.942.558a3.1,3.1,0,0,0,1.581.072,37.13,37.13,0,0,1,5.889-1.045,15.265,15.265,0,0,1,8.746-1.029,9.251,9.251,0,0,1,4.782,2.609c.266.18.1.658-.321.813a.867.867,0,0,1-.579.021,5.756,5.756,0,0,0-1.916-.127c-1.181.08-2.407.53-3.594.646a8.862,8.862,0,0,1-5.424-.912,9.938,9.938,0,0,1-1.778-1.388,35.34,35.34,0,0,0-5.006.8A36.268,36.268,0,0,1,34.658,7.608c.143.077.273.215.514.163a24.774,24.774,0,0,1,2.962-.219,2.566,2.566,0,0,0,.978-.362A10.954,10.954,0,0,1,44.691,6.11a12.051,12.051,0,0,1,5.888,2.115c.29.13.265.544-.1.775a6.792,6.792,0,0,1-1.251.359,21.977,21.977,0,0,1-8.075.691,3.359,3.359,0,0,1-2.845-1.874,21.087,21.087,0,0,0-2.467.114c.532.5,1.184.906,1.765,1.378a25.567,25.567,0,0,1,2.527,2.31,1.841,1.841,0,0,0,.635.489c.964.427,1.874.907,2.782,1.4a.708.708,0,0,0,.558.087,20.173,20.173,0,0,1,3.825-.074,8.025,8.025,0,0,1,2.206.4,1.193,1.193,0,0,1-.522.238,23.414,23.414,0,0,1-4.49.235c.624.255.951.922,1.837.806a4.733,4.733,0,0,1,3.8,1.409,7.84,7.84,0,0,1,1.868,4.666c.07.368-.523.743-.9.6a11.434,11.434,0,0,1-4.215-1.853,3.992,3.992,0,0,1-1.649-3.964c.107-.318-.257-.44-.457-.592a27.324,27.324,0,0,0-3.6-2,30.508,30.508,0,0,1,2.618,4.3,24.938,24.938,0,0,1,1.876,5.347c.021.326.421.409.675.578a4.831,4.831,0,0,1,2.295,4.4,16.829,16.829,0,0,1-2.095,7.294,1.806,1.806,0,0,1-.748.934.687.687,0,0,1-.916-.162A11.446,11.446,0,0,1,43.4,30.986a9.273,9.273,0,0,1,1.123-5.241c.185-.421.613-.836.666-1.241a23.169,23.169,0,0,0-4.571-9.974,5.487,5.487,0,0,0-.631-.725,23.2,23.2,0,0,1,.8,3.418,6.484,6.484,0,0,1,1.637,5.246,12.8,12.8,0,0,1-3.437,6.817c-.286.351-.863.36-.992.07.008-.471.227-.99.221-1.459a8.24,8.24,0,0,0-.761-2.659,6.649,6.649,0,0,1,.85-5.245,24.575,24.575,0,0,1,1.707-2.421,10.848,10.848,0,0,0-.6-2.76,11.281,11.281,0,0,1-1.229,3.621c-.056-.005-.184-.014-.255-.017a10.951,10.951,0,0,1,.91-5.04A6.549,6.549,0,0,0,36.6,10.468a25.31,25.31,0,0,0-5.359-3.316c.084.3.1.67.477.778a4.324,4.324,0,0,1,2.573,2.587,8.878,8.878,0,0,1-.321,5.476,12.561,12.561,0,0,1-.849,2.085c-.2.328-.779.444-.962.207a14.165,14.165,0,0,1-2.024-2.816,6.5,6.5,0,0,1-.783-4.63,5.874,5.874,0,0,1,1.439-2.519A14.613,14.613,0,0,0,30.11,6.7c-.092-.189-.335-.266-.531-.36A37.868,37.868,0,0,0,25.79,5.01,15.594,15.594,0,0,1,27.9,7.98a1.563,1.563,0,0,1,.188.929A1.417,1.417,0,0,1,27.4,8.9,4.173,4.173,0,0,1,25.645,7.67a12.069,12.069,0,0,1-1.829-2.78c-.126-.232-.216-.5-.584-.53-1.16-.24-2.322-.467-3.53-.607a16.546,16.546,0,0,1,1.571.555,5.019,5.019,0,0,1,2.752,3.341,12.208,12.208,0,0,1-.4,6.39c-.085.28-.226.7-.658.77-.324.109-.5-.106-.673-.226a11.58,11.58,0,0,1-3.651-4.739,6.062,6.062,0,0,1,.555-5.351,1.643,1.643,0,0,0-1-.939A55.144,55.144,0,0,0,.519,4.847c-.444.134-.74-.183-.557-.522A.863.863,0,0,1,.6,3.886,57.686,57.686,0,0,1,16.11,2.378,3.8,3.8,0,0,0,17.653,2c1.41-.507,2.857-.841,4.312-1.283m10.441,1.2a37.513,37.513,0,0,1,7.924.924,10.717,10.717,0,0,0-7.924-.924m-1.542.663A7,7,0,0,0,36.6,4.173c1.141-.1,2.313-.5,3.452-.653a31.387,31.387,0,0,0-9.186-.94M20.588,5.07a28.828,28.828,0,0,1,2.4,7.81,12.044,12.044,0,0,0,.2-4.134,4.648,4.648,0,0,0-2.6-3.676m-.89.281a5.333,5.333,0,0,0-.12,4.043,9.581,9.581,0,0,0,2.579,3.7A6.346,6.346,0,0,0,22,12.01a27.04,27.04,0,0,0-1.62-5.471A3.871,3.871,0,0,0,19.7,5.351M40.2,7.508c2.694.118,5.366.273,8.008.5a10.007,10.007,0,0,0-8.008-.5M31.028,9.221a4.5,4.5,0,0,0-.81,3.255A8.353,8.353,0,0,0,32.2,16.659a16.666,16.666,0,0,0-.161-3.14,16.968,16.968,0,0,0-1.008-4.3M39.59,8.179a2.75,2.75,0,0,0,1.931,1.053,19.423,19.423,0,0,0,6.971-.491,5.172,5.172,0,0,0-.784-.108c-2.672-.226-5.342-.464-8.118-.454M31.978,9.215a37.18,37.18,0,0,1,.785,3.76c.155.945.159,1.931.271,2.881a10.134,10.134,0,0,0,.545-2.719,4.2,4.2,0,0,0-1.6-3.922m15.663,7.213a21.14,21.14,0,0,1,3.5,3.359,4.393,4.393,0,0,0-3.5-3.359m-.821.437a2.914,2.914,0,0,0,.45,1.7,6.319,6.319,0,0,0,3.665,2.447A10.458,10.458,0,0,0,48.7,18.324a12.566,12.566,0,0,0-1.878-1.459m-8.532,7.417a18.687,18.687,0,0,0,.861,2.448,26.6,26.6,0,0,0,.951-7.9,6.8,6.8,0,0,0-1.812,5.452M40.9,19.335a31.2,31.2,0,0,1-1.043,7.428c1.628-2.529,2.072-5.318,1.043-7.428M45.9,25.419a8.531,8.531,0,0,0-1.3,4.558,9.248,9.248,0,0,0,1.343,4.634,27.345,27.345,0,0,0,.165-8.57,1.831,1.831,0,0,0-.206-.622m.951.135a26.876,26.876,0,0,1-.1,8.515,16.127,16.127,0,0,0,1.165-3.8C48.179,28.522,48.049,26.728,46.847,25.554Z" transform="translate(10.073 -0.297) rotate(14)" fill="#0b397c" stroke="#00476a" stroke-width="0.05"/>
  </g>
  <g id="wreath-2" data-name="wreath" transform="matrix(-0.866, 0.5, -0.5, -0.866, 77.131, 41.131)">
    <path id="Trazado_6-2" data-name="Trazado 6" d="M22.231-3.6a14.978,14.978,0,0,1,7.587-1.127.764.764,0,0,1,.472.226,12.252,12.252,0,0,1-8.748,1.969,1.871,1.871,0,0,0-.838-.054c-.8.2-1.6.459-2.388.727,1.292.224,2.67.308,3.942.558a3.1,3.1,0,0,0,1.581.072,37.13,37.13,0,0,1,5.889-1.045A15.265,15.265,0,0,1,38.476-3.3,9.251,9.251,0,0,1,43.258-.695c.266.18.1.658-.321.813a.867.867,0,0,1-.579.021A5.756,5.756,0,0,0,40.442.012c-1.181.08-2.407.53-3.594.646a8.862,8.862,0,0,1-5.424-.912,9.938,9.938,0,0,1-1.778-1.388,35.34,35.34,0,0,0-5.006.8A36.268,36.268,0,0,1,34.925,3.292c.143.077.273.215.514.163A24.774,24.774,0,0,1,38.4,3.236a2.566,2.566,0,0,0,.978-.362,10.954,10.954,0,0,1,5.579-1.079,12.051,12.051,0,0,1,5.888,2.115c.29.13.265.544-.1.775a6.792,6.792,0,0,1-1.251.359,21.977,21.977,0,0,1-8.075.691,3.359,3.359,0,0,1-2.845-1.874,21.087,21.087,0,0,0-2.467.114c.532.5,1.184.906,1.765,1.378A25.567,25.567,0,0,1,40.4,7.663a1.841,1.841,0,0,0,.635.489c.964.427,1.874.907,2.782,1.4a.708.708,0,0,0,.558.087A20.173,20.173,0,0,1,48.2,9.565a8.025,8.025,0,0,1,2.206.4,1.193,1.193,0,0,1-.522.238,23.414,23.414,0,0,1-4.49.235c.624.255.951.922,1.837.806a4.733,4.733,0,0,1,3.8,1.409A7.84,7.84,0,0,1,52.9,17.316c.07.368-.523.743-.9.6a11.434,11.434,0,0,1-4.215-1.853A3.992,3.992,0,0,1,46.143,12.1c.107-.318-.257-.44-.457-.592a27.324,27.324,0,0,0-3.6-2,30.508,30.508,0,0,1,2.618,4.3,24.939,24.939,0,0,1,1.876,5.347c.021.326.421.409.675.578a4.831,4.831,0,0,1,2.295,4.4,16.829,16.829,0,0,1-2.095,7.294,1.806,1.806,0,0,1-.748.934.687.687,0,0,1-.916-.162,11.446,11.446,0,0,1-2.127-5.529A9.273,9.273,0,0,1,44.79,21.43c.185-.421.613-.836.666-1.241a23.17,23.17,0,0,0-4.571-9.974,5.487,5.487,0,0,0-.631-.725,23.2,23.2,0,0,1,.8,3.418,6.484,6.484,0,0,1,1.637,5.246,12.8,12.8,0,0,1-3.437,6.817c-.286.351-.863.36-.992.07.008-.471.227-.99.221-1.459a8.24,8.24,0,0,0-.761-2.659,6.649,6.649,0,0,1,.85-5.245,24.576,24.576,0,0,1,1.707-2.421,10.848,10.848,0,0,0-.6-2.76,11.281,11.281,0,0,1-1.229,3.621c-.056-.005-.184-.014-.255-.017a10.951,10.951,0,0,1,.91-5.04,6.549,6.549,0,0,0-2.235-2.908,25.31,25.31,0,0,0-5.359-3.316c.084.3.1.67.477.778A4.324,4.324,0,0,1,34.557,6.2a8.878,8.878,0,0,1-.321,5.476,12.56,12.56,0,0,1-.849,2.085c-.2.328-.779.444-.962.207A14.165,14.165,0,0,1,30.4,11.154a6.5,6.5,0,0,1-.783-4.63,5.874,5.874,0,0,1,1.439-2.519,14.613,14.613,0,0,0-.681-1.623c-.092-.189-.335-.266-.531-.36A37.868,37.868,0,0,0,26.057.694a15.594,15.594,0,0,1,2.108,2.97,1.563,1.563,0,0,1,.188.929,1.417,1.417,0,0,1-.688-.013,4.173,4.173,0,0,1-1.752-1.227A12.069,12.069,0,0,1,24.083.574c-.126-.232-.216-.5-.584-.53-1.16-.24-2.322-.467-3.53-.607a16.546,16.546,0,0,1,1.571.555,5.019,5.019,0,0,1,2.752,3.341,12.208,12.208,0,0,1-.4,6.39c-.085.28-.226.7-.658.77-.324.109-.5-.106-.673-.226a11.58,11.58,0,0,1-3.651-4.739A6.062,6.062,0,0,1,19.461.178a1.643,1.643,0,0,0-1-.939A55.144,55.144,0,0,0,.786.531C.342.666.046.348.229.009A.863.863,0,0,1,.864-.429,57.686,57.686,0,0,1,16.377-1.937a3.8,3.8,0,0,0,1.543-.381c1.41-.507,2.857-.841,4.312-1.283M32.672-2.4a37.513,37.513,0,0,1,7.924.924A10.717,10.717,0,0,0,32.672-2.4m-1.542.663A7,7,0,0,0,36.864-.142c1.141-.1,2.313-.5,3.452-.653a31.387,31.387,0,0,0-9.186-.94M20.855.754a28.828,28.828,0,0,1,2.4,7.81,12.044,12.044,0,0,0,.2-4.134,4.648,4.648,0,0,0-2.6-3.676m-.89.281a5.333,5.333,0,0,0-.12,4.043,9.581,9.581,0,0,0,2.579,3.7,6.346,6.346,0,0,0-.156-1.086,27.04,27.04,0,0,0-1.62-5.471,3.871,3.871,0,0,0-.682-1.188m20.5,2.157c2.694.118,5.366.273,8.008.5a10.007,10.007,0,0,0-8.008-.5M31.295,4.906a4.5,4.5,0,0,0-.81,3.255,8.353,8.353,0,0,0,1.979,4.183A16.666,16.666,0,0,0,32.3,9.2a16.969,16.969,0,0,0-1.008-4.3m8.562-1.043a2.75,2.75,0,0,0,1.931,1.053,19.423,19.423,0,0,0,6.971-.491,5.173,5.173,0,0,0-.784-.108c-2.672-.226-5.342-.464-8.118-.454M32.245,4.9a37.18,37.18,0,0,1,.785,3.76c.155.945.159,1.931.271,2.881a10.134,10.134,0,0,0,.545-2.719,4.2,4.2,0,0,0-1.6-3.923m15.663,7.213a21.14,21.14,0,0,1,3.5,3.359,4.393,4.393,0,0,0-3.5-3.359m-.821.437a2.914,2.914,0,0,0,.45,1.7A6.319,6.319,0,0,0,51.2,16.694a10.458,10.458,0,0,0-2.237-2.685,12.566,12.566,0,0,0-1.878-1.459m-8.532,7.417a18.687,18.687,0,0,0,.861,2.448,26.6,26.6,0,0,0,.951-7.9,6.8,6.8,0,0,0-1.812,5.452m2.616-4.947a31.2,31.2,0,0,1-1.043,7.428c1.628-2.529,2.072-5.318,1.043-7.428M46.163,21.1a8.531,8.531,0,0,0-1.3,4.558A9.248,9.248,0,0,0,46.2,30.3a27.345,27.345,0,0,0,.165-8.57,1.831,1.831,0,0,0-.206-.622m.951.135a26.876,26.876,0,0,1-.1,8.515,16.127,16.127,0,0,0,1.165-3.8C48.446,24.206,48.316,22.413,47.114,21.239Z" transform="translate(28.067 27.827) rotate(-172)" fill="#0b397c" stroke="#00476a" stroke-width="0.05"/>
  </g>
</svg>
